# xmcd
# Track frame offsets:
# 150
# 14647
# 30915
# 47222
# 62162
# 77005
# 93262
# 114727
# 136577
# 152160
# 171250
#
# Disc length: 2571 seconds
# Revision: 0
# Processed by: cddbd v1.4PL0 Copyright (c) Steve Scherf et al.
# Submitted via: VisiTrax 2.9.5.181 - For more info visit www.synapsa.com
#
DISCID=860a090b
DTITLE=Brian McComas - Brian McComas
DYEAR=1900
DGENRE=
TTITLE0=99.9% Sure ( I've Never Been Here Before )
TTITLE1=Come With Me
TTITLE2=Night Disappear With You
TTITLE3=You'd Have Never Said Goodbye
TTITLE4=Sixteen Again
TTITLE5=You're In My Head
TTITLE6=Baby Let Me Be Your Man
TTITLE7=Never Meant To Be
TTITLE8=Straight To You
TTITLE9=I Could Never Love You Enough
TTITLE10=I'll Always Be There For You
EXTD=
EXTT0=
EXTT1=
EXTT2=
EXTT3=
EXTT4=
EXTT5=
EXTT6=
EXTT7=
EXTT8=
EXTT9=
EXTT10=
PLAYORDER=
